<?xml version="1.0" encoding="UTF-8" standalone="no"?>
<!-- Created with Inkscape (http://www.inkscape.org/) -->

<svg
   xmlns:dc="http://purl.org/dc/elements/1.1/"
   xmlns:cc="http://creativecommons.org/ns#"
   xmlns:rdf="http://www.w3.org/1999/02/22-rdf-syntax-ns#"
   xmlns:svg="http://www.w3.org/2000/svg"
   xmlns="http://www.w3.org/2000/svg"
   xmlns:sodipodi="http://sodipodi.sourceforge.net/DTD/sodipodi-0.dtd"
   xmlns:inkscape="http://www.inkscape.org/namespaces/inkscape"
   width="190"
   height="194"
   viewBox="0 0 190 194"
   version="1.1"
   id="SVGRoot"
   inkscape:version="0.92.5 (2060ec1f9f, 2020-04-08)"
   sodipodi:docname="fenicssz_logo.svg">
  <defs
     id="defs3713">
    <inkscape:path-effect
       effect="bspline"
       id="path-effect3760"
       is_visible="true"
       weight="33.333333"
       steps="2"
       helper_size="0"
       apply_no_weight="true"
       apply_with_weight="true"
       only_selected="false" />
    <inkscape:path-effect
       effect="bspline"
       id="path-effect3756"
       is_visible="true"
       weight="33.333333"
       steps="2"
       helper_size="0"
       apply_no_weight="true"
       apply_with_weight="true"
       only_selected="false" />
    <inkscape:path-effect
       effect="bspline"
       id="path-effect3752"
       is_visible="true"
       weight="33.333333"
       steps="2"
       helper_size="0"
       apply_no_weight="true"
       apply_with_weight="true"
       only_selected="false" />
  </defs>
  <sodipodi:namedview
     id="base"
     pagecolor="#ffffff"
     bordercolor="#666666"
     borderopacity="1.0"
     inkscape:pageopacity="0.0"
     inkscape:pageshadow="2"
     inkscape:zoom="8"
     inkscape:cx="83.082148"
     inkscape:cy="104.99237"
     inkscape:document-units="px"
     inkscape:current-layer="g7605"
     showgrid="false"
     inkscape:window-width="3840"
     inkscape:window-height="2032"
     inkscape:window-x="0"
     inkscape:window-y="441"
     inkscape:window-maximized="1"
     inkscape:grid-bbox="true" />
  <metadata
     id="metadata3716">
    <rdf:RDF>
      <cc:Work
         rdf:about="">
        <dc:format>image/svg+xml</dc:format>
        <dc:type
           rdf:resource="http://purl.org/dc/dcmitype/StillImage" />
        <dc:title></dc:title>
      </cc:Work>
    </rdf:RDF>
  </metadata>
  <g
     inkscape:label="Layer 1"
     inkscape:groupmode="layer"
     id="layer1"
     transform="translate(0,178)">
    <g
       id="g6300"
       transform="matrix(8.8452344,0,0,8.8452344,-2.0702467,-120.2402)">
      <g
         id="g7605"
         transform="matrix(1.4187624,0,0,1.4187624,-0.09716101,-6.3605119)">
        <path
           style="fill:none;stroke:#000000;stroke-width:0.56527615;stroke-linecap:butt;stroke-linejoin:miter;stroke-miterlimit:4;stroke-dasharray:none;stroke-opacity:1"
           d="m 15.420169,14.906194 c -2.984582,0 -5.970172,0 -8.9567711,0"
           id="path3750"
           inkscape:connector-curvature="0"
           inkscape:path-effect="#path-effect3752"
           inkscape:original-d="m 15.420169,14.906194 c -2.984582,-1.13e-4 -5.970172,-1.13e-4 -8.9567711,0"
           sodipodi:nodetypes="cc" />
        <path
           style="fill:none;stroke:#000000;stroke-width:0.56527615;stroke-linecap:butt;stroke-linejoin:miter;stroke-miterlimit:4;stroke-dasharray:none;stroke-opacity:1"
           d="M 6.7253774,14.734485 C 7.2757038,13.424147 7.8255101,12.115047 8.7154863,10.582016 9.6054625,9.0489858 10.834068,7.2937311 11.974023,6.0104615 13.113977,4.7271919 14.159593,3.9214276 15.206457,3.1147007"
           id="path3754"
           inkscape:connector-curvature="0"
           inkscape:path-effect="#path-effect3756"
           inkscape:original-d="M 6.7253774,14.734485 C 7.2757597,13.42417 7.8255659,12.11507 8.3747963,10.807185 9.6056639,9.0491268 10.834269,7.2938721 12.064399,5.5360103 13.113965,4.7271757 14.15958,3.9214112 15.206457,3.1147007"
           sodipodi:nodetypes="cscc" />
        <path
           style="fill:none;stroke:#000000;stroke-width:0.56527615;stroke-linecap:butt;stroke-linejoin:miter;stroke-miterlimit:4;stroke-dasharray:none;stroke-opacity:1"
           d="m 15.379573,3.0511071 c -2.289731,0 -4.581463,0 -6.8721945,0 -0.58189,0 -1.1599584,0 -1.5689309,0.1224513 C 6.5294752,3.2960097 6.2998639,3.5381471 5.9493417,3.9551664 5.5988194,4.3721856 5.1374513,4.9524009 4.8009955,5.3679554 4.4645397,5.7835098 4.2594647,6.0263687 4.5011636,6.1504228 c 0.2416988,0.1240541 0.9230517,0.1240541 1.8108571,0.1277398 0.8878053,0.00369 1.8883434,0.010452 2.6852583,0.00997 0.796915,-4.844e-4 1.15198,-0.00809 1.125006,0.2603593 C 10.095312,6.8169367 9.6564172,7.361762 9.070994,8.2282615 8.4855709,9.094761 7.7615041,10.270986 7.1676296,11.435625 6.5737552,12.600263 6.1168486,13.740575 5.7526653,14.312696 5.3884819,14.884818 5.1219013,14.884455 4.20844,14.88427 3.2949786,14.884085 1.7722179,14.884085 0.23201941,14.884085"
           id="path3758"
           inkscape:connector-curvature="0"
           inkscape:path-effect="#path-effect3760"
           inkscape:original-d="m 15.379573,3.0511071 c -2.289731,-10e-4 -6.8721945,0 -6.8721945,0 0,0 -1.1599584,-10e-4 -1.7456699,0 C 6.5295024,3.2960355 6.2998911,3.5381729 6.0654659,3.7853323 5.5989449,4.3722854 5.1375768,4.9525007 4.6709802,5.5390337 4.4646305,5.7835865 4.2595555,6.0264454 4.0499572,6.2744769 c 0.6929052,-10e-4 1.3742581,-10e-4 2.0598873,0 1.0899821,0.00729 2.0905201,0.014058 3.2674269,0.022097 0.4169208,-0.00901 0.7719856,-0.016609 1.1571906,-0.02478 C 10.095321,6.8169441 9.6564266,7.3617696 9.2152761,7.9093761 8.4855931,9.0947747 7.7615261,10.271 7.0326498,11.454989 c -0.4588536,1.14529 -0.9157601,2.285602 -1.3744301,3.430196 -0.2697377,-4.43e-4 -0.5363183,-8.02e-4 -0.8086631,-0.0011 -1.554578,-8e-5 -3.0773387,-8e-5 -4.61753719,0"
           sodipodi:nodetypes="cccccccccccccc" />
        <g
           id="g5730"
           transform="matrix(0.00750191,0,0,0.00750191,8.7604627,-0.73715576)">
          <g
             id="g5192">
	<g
   id="g4258">
		<polygon
   id="polygon4226"
   points="215.535,175.165 245.595,158.835 231.121,157.353 "
   style="fill:#758291" />

		<polygon
   id="polygon4228"
   points="269.731,144.363 245.595,158.835 262.678,164.773 "
   style="fill:#758291" />

		<polygon
   id="polygon4230"
   points="184.16,237.158 163.786,238.829 196.841,253.846 "
   style="fill:#758291" />

		<polygon
   id="polygon4232"
   points="140.427,281.211 172.796,266.527 149.559,262.568 "
   style="fill:#758291" />

		<polygon
   id="polygon4234"
   points="162.02,293.078 182.823,281.46 172.796,266.527 "
   style="fill:#758291" />

		<polygon
   id="polygon4236"
   points="162.02,293.078 132.082,313.58 162.02,316.312 "
   style="fill:#758291" />

		<polygon
   id="polygon4238"
   points="206.259,221.179 222.604,209.673 202.175,207.076 "
   style="fill:#758291" />

		<polygon
   id="polygon4240"
   points="207.505,286.882 182.807,304.695 213.844,306.906 "
   style="fill:#758291" />

		<polygon
   id="polygon4242"
   points="231.759,301.359 213.844,306.906 232.694,322.467 "
   style="fill:#758291" />

		<polygon
   id="polygon4244"
   points="238.915,247.896 262.308,227.487 240.398,222.292 "
   style="fill:#758291" />

		<polygon
   id="polygon4246"
   points="238.915,247.896 224.404,258.227 234.091,276.098 "
   style="fill:#758291" />

		<polygon
   id="polygon4248"
   points="258.597,258.286 234.091,276.098 258.221,281.46 "
   style="fill:#758291" />

		<polygon
   id="polygon4250"
   points="286.8,223.379 294.59,216.353 275.651,196.685 "
   style="fill:#758291" />

		<polygon
   id="polygon4252"
   points="262.293,227.487 286.8,223.381 261.923,201.883 "
   style="fill:#758291" />

		<polygon
   id="polygon4254"
   points="289.383,242.333 310.549,233.053 286.8,223.379 "
   style="fill:#758291" />

		<polygon
   id="polygon4256"
   points="280.188,320.425 269.344,338.813 283.87,344.243 "
   style="fill:#758291" />

	</g>

	<g
   id="g4286">
		<polygon
   id="polygon4260"
   points="224.417,188.531 202.175,207.076 222.604,209.673 "
   style="fill:#605e5c" />

		<polygon
   id="polygon4262"
   points="265.213,125.416 250.789,138.8 269.731,144.363 "
   style="fill:#605e5c" />

		<polygon
   id="polygon4264"
   points="243.476,172.162 262.678,164.773 245.595,158.835 "
   style="fill:#605e5c" />

		<polygon
   id="polygon4266"
   points="263.05,181.474 245.965,186.296 261.937,201.883 "
   style="fill:#605e5c" />

		<polygon
   id="polygon4268"
   points="163.786,238.829 184.16,237.158 173.13,223.477 "
   style="fill:#605e5c" />

		<polygon
   id="polygon4270"
   points="162.02,316.312 182.823,304.695 162.02,293.078 "
   style="fill:#605e5c" />

		<polygon
   id="polygon4272"
   points="245.965,186.296 222.587,209.673 240.398,222.292 "
   style="fill:#605e5c" />

		<polygon
   id="polygon4274"
   points="261.937,201.883 240.398,222.292 262.308,227.487 "
   style="fill:#605e5c" />

		<polygon
   id="polygon4276"
   points="240.398,222.292 214.794,239.732 238.915,247.896 "
   style="fill:#605e5c" />

		<polygon
   id="polygon4278"
   points="244.852,295.022 258.221,281.46 234.091,276.098 "
   style="fill:#605e5c" />

		<polygon
   id="polygon4280"
   points="258.583,258.286 289.383,242.333 262.293,227.487 "
   style="fill:#605e5c" />

		<polygon
   id="polygon4282"
   points="314.63,253.462 284.559,265.708 309.437,271.649 "
   style="fill:#605e5c" />

		<polygon
   id="polygon4284"
   points="337.253,264.966 309.421,271.649 336.287,288.201 "
   style="fill:#605e5c" />

	</g>

	<g
   id="g4304">
		<polygon
   id="polygon4288"
   points="172.796,266.527 140.427,281.211 162.02,293.078 "
   style="fill:#650000" />

		<polygon
   id="polygon4290"
   points="195.156,383.664 224.523,370.646 189.814,367.646 "
   style="fill:#650000" />

		<polygon
   id="polygon4292"
   points="231.866,339.614 246.529,325.139 232.679,322.467 "
   style="fill:#650000" />

		<polygon
   id="polygon4294"
   points="259.018,395.468 234.462,404.498 257.114,413.771 "
   style="fill:#650000" />

		<polygon
   id="polygon4296"
   points="234.462,404.498 215.535,427.498 238.915,421.191 "
   style="fill:#650000" />

		<polygon
   id="polygon4298"
   points="309.437,271.649 286.8,293.078 312.086,301.221 "
   style="fill:#650000" />

		<polygon
   id="polygon4300"
   points="306.338,346.388 280.477,363.674 307.744,369.722 "
   style="fill:#650000" />

		<polygon
   id="polygon4302"
   points="328.672,340.47 351.242,328.153 336.287,308.335 "
   style="fill:#650000" />

	</g>

	<g
   id="g4320">
		<polygon
   id="polygon4306"
   points="162.02,316.312 135.087,331.938 160.449,345.951 "
   style="fill:#ff339a" />

		<polygon
   id="polygon4308"
   points="189.814,367.646 214.177,354.965 188.482,349.623 "
   style="fill:#ff339a" />

		<polygon
   id="polygon4310"
   points="286.8,293.078 309.437,271.649 284.559,265.708 "
   style="fill:#ff339a" />

		<polygon
   id="polygon4312"
   points="306.468,322.484 283.87,344.243 306.338,346.388 "
   style="fill:#ff339a" />

		<polygon
   id="polygon4314"
   points="314.615,253.462 325.005,249.752 310.536,233.053 "
   style="fill:#ff339a" />

		<polygon
   id="polygon4316"
   points="349.198,281.46 336.287,288.201 357.679,299.849 "
   style="fill:#ff339a" />

		<polygon
   id="polygon4318"
   points="351.242,328.153 328.672,340.47 356.328,350.475 "
   style="fill:#ff339a" />

	</g>

	<g
   id="g4346">
		<polygon
   id="polygon4322"
   points="160.449,345.951 145.431,348.621 162.02,362.775 "
   style="fill:#ff7e00" />

		<polygon
   id="polygon4324"
   points="184.81,325.595 213.844,306.906 182.807,304.695 "
   style="fill:#ff7e00" />

		<polygon
   id="polygon4326"
   points="215.512,335.942 232.694,322.467 213.844,306.906 "
   style="fill:#ff7e00" />

		<polygon
   id="polygon4328"
   points="258.954,318.033 269.392,307.742 244.852,295.022 "
   style="fill:#ff7e00" />

		<polygon
   id="polygon4330"
   points="234.462,404.498 259.018,395.468 248.565,386.678 "
   style="fill:#ff7e00" />

		<polygon
   id="polygon4332"
   points="258.202,281.46 284.559,265.708 258.583,258.286 "
   style="fill:#ff7e00" />

		<polygon
   id="polygon4334"
   points="280.188,320.425 312.086,301.221 286.8,293.078 "
   style="fill:#ff7e00" />

		<polygon
   id="polygon4336"
   points="283.87,344.243 270.086,353.282 280.477,363.674 "
   style="fill:#ff7e00" />

		<polygon
   id="polygon4338"
   points="307.744,369.722 286.8,386.01 301.644,392.62 "
   style="fill:#ff7e00" />

		<polygon
   id="polygon4340"
   points="336.287,288.201 312.072,301.221 336.287,308.335 "
   style="fill:#ff7e00" />

		<polygon
   id="polygon4342"
   points="306.322,346.388 328.672,340.47 306.453,322.484 "
   style="fill:#ff7e00" />

		<polygon
   id="polygon4344"
   points="333.342,357.836 356.328,350.475 328.672,340.47 "
   style="fill:#ff7e00" />

	</g>

	<g
   id="g4408">
		<polygon
   id="polygon4348"
   points="182.823,281.46 162.02,293.078 182.823,304.695 "
   style="fill:#ed0000" />

		<polygon
   id="polygon4350"
   points="135.087,331.938 162.02,316.312 132.082,313.58 "
   style="fill:#ed0000" />

		<polygon
   id="polygon4352"
   points="182.823,304.695 162.02,316.312 184.828,325.595 "
   style="fill:#ed0000" />

		<polygon
   id="polygon4354"
   points="145.431,348.621 160.449,345.951 135.087,331.938 "
   style="fill:#ed0000" />

		<polygon
   id="polygon4356"
   points="184.828,325.595 160.449,345.951 188.498,349.623 "
   style="fill:#ed0000" />

		<polygon
   id="polygon4358"
   points="188.498,349.623 162.02,362.775 189.832,367.646 "
   style="fill:#ed0000" />

		<polygon
   id="polygon4360"
   points="189.832,367.646 178.137,374.318 195.171,383.664 "
   style="fill:#ed0000" />

		<polygon
   id="polygon4362"
   points="219.533,284.213 207.505,286.882 231.759,301.359 "
   style="fill:#ed0000" />

		<polygon
   id="polygon4364"
   points="213.844,306.906 184.81,325.595 215.512,335.942 "
   style="fill:#ed0000" />

		<polygon
   id="polygon4366"
   points="232.694,322.467 215.512,335.942 231.882,339.614 "
   style="fill:#ed0000" />

		<polygon
   id="polygon4368"
   points="215.512,335.942 188.482,349.623 214.177,354.965 "
   style="fill:#ed0000" />

		<polygon
   id="polygon4370"
   points="231.882,339.614 214.177,354.965 240.225,351.29 "
   style="fill:#ed0000" />

		<polygon
   id="polygon4372"
   points="214.177,354.965 189.814,367.646 224.523,370.646 "
   style="fill:#ed0000" />

		<polygon
   id="polygon4374"
   points="224.523,370.646 195.156,383.664 207.505,389.334 "
   style="fill:#ed0000" />

		<polygon
   id="polygon4376"
   points="232.694,322.467 231.759,301.359 246.529,325.139 232.679,322.467 "
   style="fill:#ed0000" />

		<polygon
   id="polygon4378"
   points="246.529,325.139 231.866,339.614 248.22,338.275 "
   style="fill:#ed0000" />

		<polygon
   id="polygon4380"
   points="238.915,421.191 257.114,413.771 234.462,404.498 "
   style="fill:#ed0000" />

		<polygon
   id="polygon4382"
   points="269.375,307.742 286.8,293.078 258.202,281.46 "
   style="fill:#ed0000" />

		<polygon
   id="polygon4384"
   points="269.344,338.813 280.188,320.425 269.375,307.742 "
   style="fill:#ed0000" />

		<polygon
   id="polygon4386"
   points="312.086,301.221 280.188,320.425 306.468,322.484 "
   style="fill:#ed0000" />

		<polygon
   id="polygon4388"
   points="280.477,363.674 306.338,346.388 283.87,344.243 "
   style="fill:#ed0000" />

		<polygon
   id="polygon4390"
   points="261.18,370.725 280.477,363.674 270.086,353.282 "
   style="fill:#ed0000" />

		<polygon
   id="polygon4392"
   points="286.8,386.01 307.744,369.722 280.477,363.674 "
   style="fill:#ed0000" />

		<polygon
   id="polygon4394"
   points="258.999,395.468 286.8,386.01 261.18,370.725 "
   style="fill:#ed0000" />

		<polygon
   id="polygon4396"
   points="257.099,413.771 280.105,404.12 258.999,395.468 "
   style="fill:#ed0000" />

		<polygon
   id="polygon4398"
   points="357.679,299.849 336.287,308.335 351.242,328.153 "
   style="fill:#ed0000" />

		<polygon
   id="polygon4400"
   points="336.287,308.335 306.453,322.484 328.672,340.47 "
   style="fill:#ed0000" />

		<polygon
   id="polygon4402"
   points="328.672,340.47 306.322,346.388 333.342,357.836 "
   style="fill:#ed0000" />

		<polygon
   id="polygon4404"
   points="356.328,350.475 333.342,357.836 343.947,363.674 "
   style="fill:#ed0000" />

		<polygon
   id="polygon4406"
   points="301.629,392.62 327.606,375.923 307.729,369.722 "
   style="fill:#ed0000" />

	</g>

	<g
   id="g4440">
		<polygon
   id="polygon4410"
   points="215.55,175.165 202.175,192.975 224.417,188.531 "
   style="fill:#aeb0b2" />

		<polygon
   id="polygon4412"
   points="250.789,138.8 231.121,157.353 245.595,158.835 "
   style="fill:#aeb0b2" />

		<polygon
   id="polygon4414"
   points="245.595,158.835 215.535,175.165 243.476,172.162 "
   style="fill:#aeb0b2" />

		<polygon
   id="polygon4416"
   points="262.678,164.773 243.476,172.162 263.05,181.474 "
   style="fill:#aeb0b2" />

		<polygon
   id="polygon4418"
   points="261.923,201.881 275.651,196.685 263.034,181.474 "
   style="fill:#aeb0b2" />

		<polygon
   id="polygon4420"
   points="172.796,266.527 196.841,253.846 163.786,238.829 "
   style="fill:#aeb0b2" />

		<polygon
   id="polygon4422"
   points="132.082,313.58 162.02,293.078 140.427,281.211 "
   style="fill:#aeb0b2" />

		<polygon
   id="polygon4424"
   points="160.449,345.951 184.828,325.595 162.02,316.312 "
   style="fill:#aeb0b2" />

		<polygon
   id="polygon4426"
   points="222.604,209.673 206.259,221.179 214.809,239.732 "
   style="fill:#aeb0b2" />

		<polygon
   id="polygon4428"
   points="182.807,304.695 207.505,286.882 182.807,281.46 "
   style="fill:#aeb0b2" />

		<polygon
   id="polygon4430"
   points="262.308,227.487 238.915,247.896 258.597,258.286 "
   style="fill:#aeb0b2" />

		<polygon
   id="polygon4432"
   points="258.221,281.46 244.852,295.022 269.392,307.742 "
   style="fill:#aeb0b2" />

		<polygon
   id="polygon4434"
   points="310.549,233.053 289.383,242.333 314.63,253.462 "
   style="fill:#aeb0b2" />

		<polygon
   id="polygon4436"
   points="325.005,249.752 314.615,253.462 337.253,264.966 "
   style="fill:#aeb0b2" />

		<polygon
   id="polygon4438"
   points="351.227,328.153 363.229,317.289 357.663,299.849 "
   style="fill:#aeb0b2" />

	</g>

	<g
   id="g4462">
		<polygon
   id="polygon4442"
   points="178.137,374.318 189.832,367.646 162.02,362.775 "
   style="fill:#bd0000" />

		<polygon
   id="polygon4444"
   points="213.844,306.906 231.759,301.359 207.505,286.882 "
   style="fill:#bd0000" />

		<polygon
   id="polygon4446"
   points="188.482,349.623 215.512,335.942 184.81,325.595 "
   style="fill:#bd0000" />

		<polygon
   id="polygon4448"
   points="214.177,354.965 231.882,339.614 215.512,335.942 "
   style="fill:#bd0000" />

		<polygon
   id="polygon4450"
   points="269.392,307.742 258.954,318.033 269.359,338.813 "
   style="fill:#bd0000" />

		<polygon
   id="polygon4452"
   points="284.559,265.708 314.63,253.462 289.383,242.333 "
   style="fill:#bd0000" />

		<polygon
   id="polygon4454"
   points="283.87,344.243 306.468,322.484 280.188,320.425 "
   style="fill:#bd0000" />

		<polygon
   id="polygon4456"
   points="286.8,386.01 258.999,395.468 280.105,404.12 "
   style="fill:#bd0000" />

		<polygon
   id="polygon4458"
   points="307.729,369.722 333.342,357.836 306.322,346.388 "
   style="fill:#bd0000" />

		<polygon
   id="polygon4460"
   points="363.229,317.289 351.227,328.153 363.295,334.731 "
   style="fill:#bd0000" />

	</g>

	<g
   id="g4478">
		<polygon
   id="polygon4464"
   points="162.02,362.775 188.498,349.623 160.449,345.951 "
   style="fill:#ffcf00" />

		<polygon
   id="polygon4466"
   points="207.505,268.196 182.807,281.46 207.505,286.882 "
   style="fill:#ffcf00" />

		<polygon
   id="polygon4468"
   points="224.523,370.646 240.225,351.29 214.177,354.965 "
   style="fill:#ffcf00" />

		<polygon
   id="polygon4470"
   points="261.196,370.725 248.565,386.678 259.018,395.468 "
   style="fill:#ffcf00" />

		<polygon
   id="polygon4472"
   points="306.453,322.484 336.287,308.335 312.072,301.221 "
   style="fill:#ffcf00" />

		<polygon
   id="polygon4474"
   points="333.342,357.836 307.729,369.722 327.606,375.923 "
   style="fill:#ffcf00" />

		<polygon
   id="polygon4476"
   points="356.315,350.475 363.295,334.731 351.227,328.153 "
   style="fill:#ffcf00" />

	</g>

	<g
   id="g4520">
		<polygon
   id="polygon4480"
   points="202.175,207.076 224.417,188.531 202.175,192.975 "
   style="fill:#464749" />

		<polygon
   id="polygon4482"
   points="245.595,158.835 269.731,144.363 250.789,138.8 "
   style="fill:#464749" />

		<polygon
   id="polygon4484"
   points="224.404,188.531 243.476,172.162 215.535,175.165 "
   style="fill:#464749" />

		<polygon
   id="polygon4486"
   points="163.786,238.829 149.559,262.568 172.796,266.527 "
   style="fill:#464749" />

		<polygon
   id="polygon4488"
   points="196.841,253.846 172.796,266.527 182.823,281.46 "
   style="fill:#464749" />

		<polygon
   id="polygon4490"
   points="207.505,286.882 219.533,284.213 207.505,268.196 "
   style="fill:#464749" />

		<polygon
   id="polygon4492"
   points="240.398,222.292 261.937,201.883 245.965,186.296 "
   style="fill:#464749" />

		<polygon
   id="polygon4494"
   points="214.794,239.732 240.398,222.292 222.587,209.673 "
   style="fill:#464749" />

		<polygon
   id="polygon4496"
   points="224.404,258.227 238.915,247.896 214.794,239.732 "
   style="fill:#464749" />

		<polygon
   id="polygon4498"
   points="234.091,276.098 258.597,258.286 238.915,247.896 "
   style="fill:#464749" />

		<polygon
   id="polygon4500"
   points="240.211,351.29 248.22,338.275 231.866,339.614 "
   style="fill:#464749" />

		<polygon
   id="polygon4502"
   points="294.59,216.353 286.8,223.381 310.549,233.053 "
   style="fill:#464749" />

		<polygon
   id="polygon4504"
   points="286.8,223.379 262.293,227.487 289.383,242.333 "
   style="fill:#464749" />

		<polygon
   id="polygon4506"
   points="284.559,265.708 258.202,281.46 286.8,293.078 "
   style="fill:#464749" />

		<polygon
   id="polygon4508"
   points="280.477,363.674 261.18,370.725 286.8,386.01 "
   style="fill:#464749" />

		<polygon
   id="polygon4510"
   points="309.421,271.649 337.253,264.966 314.615,253.462 "
   style="fill:#464749" />

		<polygon
   id="polygon4512"
   points="312.072,301.221 336.287,288.201 309.421,271.649 "
   style="fill:#464749" />

		<polygon
   id="polygon4514"
   points="336.287,308.335 357.679,299.849 336.287,288.201 "
   style="fill:#464749" />

		<polygon
   id="polygon4516"
   points="327.606,375.923 343.947,363.674 333.342,357.836 "
   style="fill:#464749" />

		<polygon
   id="polygon4518"
   points="269.714,144.363 277.136,128.78 265.198,125.416 "
   style="fill:#464749" />

	</g>

	<g
   id="g4542">
		<polygon
   id="polygon4522"
   points="245.965,186.296 263.05,181.474 243.476,172.162 " />

		<polygon
   id="polygon4524"
   points="286.041,107.627 265.198,125.416 277.136,128.78 " />

		<polygon
   id="polygon4526"
   points="182.807,281.46 207.505,268.196 196.828,253.846 " />

		<polygon
   id="polygon4528"
   points="275.651,196.685 261.923,201.883 286.8,223.381 " />

		<polygon
   id="polygon4530"
   points="289.383,242.333 258.583,258.286 284.559,265.708 " />

		<polygon
   id="polygon4532"
   points="286.8,293.078 269.375,307.742 280.188,320.425 " />

		<polygon
   id="polygon4534"
   points="270.086,353.282 283.87,344.243 269.344,338.813 " />

		<polygon
   id="polygon4536"
   points="280.105,404.12 301.644,392.62 286.8,386.01 " />

		<polygon
   id="polygon4538"
   points="336.287,288.201 349.198,281.46 337.253,264.966 " />

		<polygon
   id="polygon4540"
   points="222.587,209.673 245.965,186.296 224.404,188.531 " />

	</g>

	<g
   id="g4546">
		<polygon
   id="polygon4544"
   points="245.965,186.296 243.476,172.162 224.404,188.531 "
   style="fill:#ffff00" />

	</g>

	<g
   id="g4580">
		<polygon
   id="polygon4548"
   points="215.535,175.165 245.595,158.835 231.121,157.353 "
   style="fill:#758291" />

		<polygon
   id="polygon4550"
   points="269.731,144.363 245.595,158.835 262.678,164.773 "
   style="fill:#758291" />

		<polygon
   id="polygon4552"
   points="184.16,237.158 163.786,238.829 196.841,253.846 "
   style="fill:#758291" />

		<polygon
   id="polygon4554"
   points="140.427,281.211 172.796,266.527 149.559,262.568 "
   style="fill:#758291" />

		<polygon
   id="polygon4556"
   points="162.02,293.078 182.823,281.46 172.796,266.527 "
   style="fill:#758291" />

		<polygon
   id="polygon4558"
   points="162.02,293.078 132.082,313.58 162.02,316.312 "
   style="fill:#758291" />

		<polygon
   id="polygon4560"
   points="206.259,221.179 222.604,209.673 202.175,207.076 "
   style="fill:#758291" />

		<polygon
   id="polygon4562"
   points="207.505,286.882 182.807,304.695 213.844,306.906 "
   style="fill:#758291" />

		<polygon
   id="polygon4564"
   points="231.759,301.359 213.844,306.906 232.694,322.467 "
   style="fill:#758291" />

		<polygon
   id="polygon4566"
   points="238.915,247.896 262.308,227.487 240.398,222.292 "
   style="fill:#758291" />

		<polygon
   id="polygon4568"
   points="238.915,247.896 224.404,258.227 234.091,276.098 "
   style="fill:#758291" />

		<polygon
   id="polygon4570"
   points="258.597,258.286 234.091,276.098 258.221,281.46 "
   style="fill:#758291" />

		<polygon
   id="polygon4572"
   points="286.8,223.379 294.59,216.353 275.651,196.685 "
   style="fill:#758291" />

		<polygon
   id="polygon4574"
   points="262.293,227.487 286.8,223.381 261.923,201.883 "
   style="fill:#758291" />

		<polygon
   id="polygon4576"
   points="289.383,242.333 310.549,233.053 286.8,223.379 "
   style="fill:#758291" />

		<polygon
   id="polygon4578"
   points="280.188,320.425 269.344,338.813 283.87,344.243 "
   style="fill:#758291" />

	</g>

	<g
   id="g4608">
		<polygon
   id="polygon4582"
   points="224.417,188.531 202.175,207.076 222.604,209.673 "
   style="fill:#605e5c" />

		<polygon
   id="polygon4584"
   points="265.213,125.416 250.789,138.8 269.731,144.363 "
   style="fill:#605e5c" />

		<polygon
   id="polygon4586"
   points="243.476,172.162 262.678,164.773 245.595,158.835 "
   style="fill:#605e5c" />

		<polygon
   id="polygon4588"
   points="263.05,181.474 245.965,186.296 261.937,201.883 "
   style="fill:#605e5c" />

		<polygon
   id="polygon4590"
   points="163.786,238.829 184.16,237.158 173.13,223.477 "
   style="fill:#605e5c" />

		<polygon
   id="polygon4592"
   points="162.02,316.312 182.823,304.695 162.02,293.078 "
   style="fill:#605e5c" />

		<polygon
   id="polygon4594"
   points="245.965,186.296 222.587,209.673 240.398,222.292 "
   style="fill:#605e5c" />

		<polygon
   id="polygon4596"
   points="261.937,201.883 240.398,222.292 262.308,227.487 "
   style="fill:#605e5c" />

		<polygon
   id="polygon4598"
   points="240.398,222.292 214.794,239.732 238.915,247.896 "
   style="fill:#605e5c" />

		<polygon
   id="polygon4600"
   points="244.852,295.022 258.221,281.46 234.091,276.098 "
   style="fill:#605e5c" />

		<polygon
   id="polygon4602"
   points="258.583,258.286 289.383,242.333 262.293,227.487 "
   style="fill:#605e5c" />

		<polygon
   id="polygon4604"
   points="314.63,253.462 284.559,265.708 309.437,271.649 "
   style="fill:#605e5c" />

		<polygon
   id="polygon4606"
   points="337.253,264.966 309.421,271.649 336.287,288.201 "
   style="fill:#605e5c" />

	</g>

	<g
   id="g4626">
		<polygon
   id="polygon4610"
   points="172.796,266.527 140.427,281.211 162.02,293.078 "
   style="fill:#650000" />

		<polygon
   id="polygon4612"
   points="195.156,383.664 224.523,370.646 189.814,367.646 "
   style="fill:#650000" />

		<polygon
   id="polygon4614"
   points="231.866,339.614 246.529,325.139 232.679,322.467 "
   style="fill:#650000" />

		<polygon
   id="polygon4616"
   points="259.018,395.468 234.462,404.498 257.114,413.771 "
   style="fill:#650000" />

		<polygon
   id="polygon4618"
   points="234.462,404.498 215.535,427.498 238.915,421.191 "
   style="fill:#650000" />

		<polygon
   id="polygon4620"
   points="309.437,271.649 286.8,293.078 312.086,301.221 "
   style="fill:#650000" />

		<polygon
   id="polygon4622"
   points="306.338,346.388 280.477,363.674 307.744,369.722 "
   style="fill:#650000" />

		<polygon
   id="polygon4624"
   points="328.672,340.47 351.242,328.153 336.287,308.335 "
   style="fill:#650000" />

	</g>

	<g
   id="g4642">
		<polygon
   id="polygon4628"
   points="162.02,316.312 135.087,331.938 160.449,345.951 "
   style="fill:#ff339a" />

		<polygon
   id="polygon4630"
   points="189.814,367.646 214.177,354.965 188.482,349.623 "
   style="fill:#ff339a" />

		<polygon
   id="polygon4632"
   points="286.8,293.078 309.437,271.649 284.559,265.708 "
   style="fill:#ff339a" />

		<polygon
   id="polygon4634"
   points="306.468,322.484 283.87,344.243 306.338,346.388 "
   style="fill:#ff339a" />

		<polygon
   id="polygon4636"
   points="314.615,253.462 325.005,249.752 310.536,233.053 "
   style="fill:#ff339a" />

		<polygon
   id="polygon4638"
   points="349.198,281.46 336.287,288.201 357.679,299.849 "
   style="fill:#ff339a" />

		<polygon
   id="polygon4640"
   points="351.242,328.153 328.672,340.47 356.328,350.475 "
   style="fill:#ff339a" />

	</g>

	<g
   id="g4668">
		<polygon
   id="polygon4644"
   points="160.449,345.951 145.431,348.621 162.02,362.775 "
   style="fill:#ff7e00" />

		<polygon
   id="polygon4646"
   points="184.81,325.595 213.844,306.906 182.807,304.695 "
   style="fill:#ff7e00" />

		<polygon
   id="polygon4648"
   points="215.512,335.942 232.694,322.467 213.844,306.906 "
   style="fill:#ff7e00" />

		<polygon
   id="polygon4650"
   points="258.954,318.033 269.392,307.742 244.852,295.022 "
   style="fill:#ff7e00" />

		<polygon
   id="polygon4652"
   points="234.462,404.498 259.018,395.468 248.565,386.678 "
   style="fill:#ff7e00" />

		<polygon
   id="polygon4654"
   points="258.202,281.46 284.559,265.708 258.583,258.286 "
   style="fill:#ff7e00" />

		<polygon
   id="polygon4656"
   points="280.188,320.425 312.086,301.221 286.8,293.078 "
   style="fill:#ff7e00" />

		<polygon
   id="polygon4658"
   points="283.87,344.243 270.086,353.282 280.477,363.674 "
   style="fill:#ff7e00" />

		<polygon
   id="polygon4660"
   points="307.744,369.722 286.8,386.01 301.644,392.62 "
   style="fill:#ff7e00" />

		<polygon
   id="polygon4662"
   points="336.287,288.201 312.072,301.221 336.287,308.335 "
   style="fill:#ff7e00" />

		<polygon
   id="polygon4664"
   points="306.322,346.388 328.672,340.47 306.453,322.484 "
   style="fill:#ff7e00" />

		<polygon
   id="polygon4666"
   points="333.342,357.836 356.328,350.475 328.672,340.47 "
   style="fill:#ff7e00" />

	</g>

	<g
   id="g4730">
		<polygon
   id="polygon4670"
   points="182.823,281.46 162.02,293.078 182.823,304.695 "
   style="fill:#ed0000" />

		<polygon
   id="polygon4672"
   points="135.087,331.938 162.02,316.312 132.082,313.58 "
   style="fill:#ed0000" />

		<polygon
   id="polygon4674"
   points="182.823,304.695 162.02,316.312 184.828,325.595 "
   style="fill:#ed0000" />

		<polygon
   id="polygon4676"
   points="145.431,348.621 160.449,345.951 135.087,331.938 "
   style="fill:#ed0000" />

		<polygon
   id="polygon4678"
   points="184.828,325.595 160.449,345.951 188.498,349.623 "
   style="fill:#ed0000" />

		<polygon
   id="polygon4680"
   points="188.498,349.623 162.02,362.775 189.832,367.646 "
   style="fill:#ed0000" />

		<polygon
   id="polygon4682"
   points="189.832,367.646 178.137,374.318 195.171,383.664 "
   style="fill:#ed0000" />

		<polygon
   id="polygon4684"
   points="219.533,284.213 207.505,286.882 231.759,301.359 "
   style="fill:#ed0000" />

		<polygon
   id="polygon4686"
   points="213.844,306.906 184.81,325.595 215.512,335.942 "
   style="fill:#ed0000" />

		<polygon
   id="polygon4688"
   points="232.694,322.467 215.512,335.942 231.882,339.614 "
   style="fill:#ed0000" />

		<polygon
   id="polygon4690"
   points="215.512,335.942 188.482,349.623 214.177,354.965 "
   style="fill:#ed0000" />

		<polygon
   id="polygon4692"
   points="231.882,339.614 214.177,354.965 240.225,351.29 "
   style="fill:#ed0000" />

		<polygon
   id="polygon4694"
   points="214.177,354.965 189.814,367.646 224.523,370.646 "
   style="fill:#ed0000" />

		<polygon
   id="polygon4696"
   points="224.523,370.646 195.156,383.664 207.505,389.334 "
   style="fill:#ed0000" />

		<polygon
   id="polygon4698"
   points="232.694,322.467 231.759,301.359 246.529,325.139 232.679,322.467 "
   style="fill:#ed0000" />

		<polygon
   id="polygon4700"
   points="246.529,325.139 231.866,339.614 248.22,338.275 "
   style="fill:#ed0000" />

		<polygon
   id="polygon4702"
   points="238.915,421.191 257.114,413.771 234.462,404.498 "
   style="fill:#ed0000" />

		<polygon
   id="polygon4704"
   points="269.375,307.742 286.8,293.078 258.202,281.46 "
   style="fill:#ed0000" />

		<polygon
   id="polygon4706"
   points="269.344,338.813 280.188,320.425 269.375,307.742 "
   style="fill:#ed0000" />

		<polygon
   id="polygon4708"
   points="312.086,301.221 280.188,320.425 306.468,322.484 "
   style="fill:#ed0000" />

		<polygon
   id="polygon4710"
   points="280.477,363.674 306.338,346.388 283.87,344.243 "
   style="fill:#ed0000" />

		<polygon
   id="polygon4712"
   points="261.18,370.725 280.477,363.674 270.086,353.282 "
   style="fill:#ed0000" />

		<polygon
   id="polygon4714"
   points="286.8,386.01 307.744,369.722 280.477,363.674 "
   style="fill:#ed0000" />

		<polygon
   id="polygon4716"
   points="258.999,395.468 286.8,386.01 261.18,370.725 "
   style="fill:#ed0000" />

		<polygon
   id="polygon4718"
   points="257.099,413.771 280.105,404.12 258.999,395.468 "
   style="fill:#ed0000" />

		<polygon
   id="polygon4720"
   points="357.679,299.849 336.287,308.335 351.242,328.153 "
   style="fill:#ed0000" />

		<polygon
   id="polygon4722"
   points="336.287,308.335 306.453,322.484 328.672,340.47 "
   style="fill:#ed0000" />

		<polygon
   id="polygon4724"
   points="328.672,340.47 306.322,346.388 333.342,357.836 "
   style="fill:#ed0000" />

		<polygon
   id="polygon4726"
   points="356.328,350.475 333.342,357.836 343.947,363.674 "
   style="fill:#ed0000" />

		<polygon
   id="polygon4728"
   points="301.629,392.62 327.606,375.923 307.729,369.722 "
   style="fill:#ed0000" />

	</g>

	<g
   id="g4762">
		<polygon
   id="polygon4732"
   points="215.55,175.165 202.175,192.975 224.417,188.531 "
   style="fill:#aeb0b2" />

		<polygon
   id="polygon4734"
   points="250.789,138.8 231.121,157.353 245.595,158.835 "
   style="fill:#aeb0b2" />

		<polygon
   id="polygon4736"
   points="245.595,158.835 215.535,175.165 243.476,172.162 "
   style="fill:#aeb0b2" />

		<polygon
   id="polygon4738"
   points="262.678,164.773 243.476,172.162 263.05,181.474 "
   style="fill:#aeb0b2" />

		<polygon
   id="polygon4740"
   points="261.923,201.881 275.651,196.685 263.034,181.474 "
   style="fill:#aeb0b2" />

		<polygon
   id="polygon4742"
   points="172.796,266.527 196.841,253.846 163.786,238.829 "
   style="fill:#aeb0b2" />

		<polygon
   id="polygon4744"
   points="132.082,313.58 162.02,293.078 140.427,281.211 "
   style="fill:#aeb0b2" />

		<polygon
   id="polygon4746"
   points="160.449,345.951 184.828,325.595 162.02,316.312 "
   style="fill:#aeb0b2" />

		<polygon
   id="polygon4748"
   points="222.604,209.673 206.259,221.179 214.809,239.732 "
   style="fill:#aeb0b2" />

		<polygon
   id="polygon4750"
   points="182.807,304.695 207.505,286.882 182.807,281.46 "
   style="fill:#aeb0b2" />

		<polygon
   id="polygon4752"
   points="262.308,227.487 238.915,247.896 258.597,258.286 "
   style="fill:#aeb0b2" />

		<polygon
   id="polygon4754"
   points="258.221,281.46 244.852,295.022 269.392,307.742 "
   style="fill:#aeb0b2" />

		<polygon
   id="polygon4756"
   points="310.549,233.053 289.383,242.333 314.63,253.462 "
   style="fill:#aeb0b2" />

		<polygon
   id="polygon4758"
   points="325.005,249.752 314.615,253.462 337.253,264.966 "
   style="fill:#aeb0b2" />

		<polygon
   id="polygon4760"
   points="351.227,328.153 363.229,317.289 357.663,299.849 "
   style="fill:#aeb0b2" />

	</g>

	<g
   id="g4784">
		<polygon
   id="polygon4764"
   points="178.137,374.318 189.832,367.646 162.02,362.775 "
   style="fill:#bd0000" />

		<polygon
   id="polygon4766"
   points="213.844,306.906 231.759,301.359 207.505,286.882 "
   style="fill:#bd0000" />

		<polygon
   id="polygon4768"
   points="188.482,349.623 215.512,335.942 184.81,325.595 "
   style="fill:#bd0000" />

		<polygon
   id="polygon4770"
   points="214.177,354.965 231.882,339.614 215.512,335.942 "
   style="fill:#bd0000" />

		<polygon
   id="polygon4772"
   points="269.392,307.742 258.954,318.033 269.359,338.813 "
   style="fill:#bd0000" />

		<polygon
   id="polygon4774"
   points="284.559,265.708 314.63,253.462 289.383,242.333 "
   style="fill:#bd0000" />

		<polygon
   id="polygon4776"
   points="283.87,344.243 306.468,322.484 280.188,320.425 "
   style="fill:#bd0000" />

		<polygon
   id="polygon4778"
   points="286.8,386.01 258.999,395.468 280.105,404.12 "
   style="fill:#bd0000" />

		<polygon
   id="polygon4780"
   points="307.729,369.722 333.342,357.836 306.322,346.388 "
   style="fill:#bd0000" />

		<polygon
   id="polygon4782"
   points="363.229,317.289 351.227,328.153 363.295,334.731 "
   style="fill:#bd0000" />

	</g>

	<g
   id="g4800">
		<polygon
   id="polygon4786"
   points="162.02,362.775 188.498,349.623 160.449,345.951 "
   style="fill:#ffcf00" />

		<polygon
   id="polygon4788"
   points="207.505,268.196 182.807,281.46 207.505,286.882 "
   style="fill:#ffcf00" />

		<polygon
   id="polygon4790"
   points="224.523,370.646 240.225,351.29 214.177,354.965 "
   style="fill:#ffcf00" />

		<polygon
   id="polygon4792"
   points="261.196,370.725 248.565,386.678 259.018,395.468 "
   style="fill:#ffcf00" />

		<polygon
   id="polygon4794"
   points="306.453,322.484 336.287,308.335 312.072,301.221 "
   style="fill:#ffcf00" />

		<polygon
   id="polygon4796"
   points="333.342,357.836 307.729,369.722 327.606,375.923 "
   style="fill:#ffcf00" />

		<polygon
   id="polygon4798"
   points="356.315,350.475 363.295,334.731 351.227,328.153 "
   style="fill:#ffcf00" />

	</g>

	<g
   id="g4842">
		<polygon
   id="polygon4802"
   points="202.175,207.076 224.417,188.531 202.175,192.975 "
   style="fill:#464749" />

		<polygon
   id="polygon4804"
   points="245.595,158.835 269.731,144.363 250.789,138.8 "
   style="fill:#464749" />

		<polygon
   id="polygon4806"
   points="224.404,188.531 243.476,172.162 215.535,175.165 "
   style="fill:#464749" />

		<polygon
   id="polygon4808"
   points="163.786,238.829 149.559,262.568 172.796,266.527 "
   style="fill:#464749" />

		<polygon
   id="polygon4810"
   points="196.841,253.846 172.796,266.527 182.823,281.46 "
   style="fill:#464749" />

		<polygon
   id="polygon4812"
   points="207.505,286.882 219.533,284.213 207.505,268.196 "
   style="fill:#464749" />

		<polygon
   id="polygon4814"
   points="240.398,222.292 261.937,201.883 245.965,186.296 "
   style="fill:#464749" />

		<polygon
   id="polygon4816"
   points="214.794,239.732 240.398,222.292 222.587,209.673 "
   style="fill:#464749" />

		<polygon
   id="polygon4818"
   points="224.404,258.227 238.915,247.896 214.794,239.732 "
   style="fill:#464749" />

		<polygon
   id="polygon4820"
   points="234.091,276.098 258.597,258.286 238.915,247.896 "
   style="fill:#464749" />

		<polygon
   id="polygon4822"
   points="240.211,351.29 248.22,338.275 231.866,339.614 "
   style="fill:#464749" />

		<polygon
   id="polygon4824"
   points="294.59,216.353 286.8,223.381 310.549,233.053 "
   style="fill:#464749" />

		<polygon
   id="polygon4826"
   points="286.8,223.379 262.293,227.487 289.383,242.333 "
   style="fill:#464749" />

		<polygon
   id="polygon4828"
   points="284.559,265.708 258.202,281.46 286.8,293.078 "
   style="fill:#464749" />

		<polygon
   id="polygon4830"
   points="280.477,363.674 261.18,370.725 286.8,386.01 "
   style="fill:#464749" />

		<polygon
   id="polygon4832"
   points="309.421,271.649 337.253,264.966 314.615,253.462 "
   style="fill:#464749" />

		<polygon
   id="polygon4834"
   points="312.072,301.221 336.287,288.201 309.421,271.649 "
   style="fill:#464749" />

		<polygon
   id="polygon4836"
   points="336.287,308.335 357.679,299.849 336.287,288.201 "
   style="fill:#464749" />

		<polygon
   id="polygon4838"
   points="327.606,375.923 343.947,363.674 333.342,357.836 "
   style="fill:#464749" />

		<polygon
   id="polygon4840"
   points="269.714,144.363 277.136,128.78 265.198,125.416 "
   style="fill:#464749" />

	</g>

	<g
   id="g4864">
		<polygon
   id="polygon4844"
   points="245.965,186.296 263.05,181.474 243.476,172.162 " />

		<polygon
   id="polygon4846"
   points="286.041,107.627 265.198,125.416 277.136,128.78 " />

		<polygon
   id="polygon4848"
   points="182.807,281.46 207.505,268.196 196.828,253.846 " />

		<polygon
   id="polygon4850"
   points="275.651,196.685 261.923,201.883 286.8,223.381 " />

		<polygon
   id="polygon4852"
   points="289.383,242.333 258.583,258.286 284.559,265.708 " />

		<polygon
   id="polygon4854"
   points="286.8,293.078 269.375,307.742 280.188,320.425 " />

		<polygon
   id="polygon4856"
   points="270.086,353.282 283.87,344.243 269.344,338.813 " />

		<polygon
   id="polygon4858"
   points="280.105,404.12 301.644,392.62 286.8,386.01 " />

		<polygon
   id="polygon4860"
   points="336.287,288.201 349.198,281.46 337.253,264.966 " />

		<polygon
   id="polygon4862"
   points="222.587,209.673 245.965,186.296 224.404,188.531 " />

	</g>

	<g
   id="g4868">
		<polygon
   id="polygon4866"
   points="245.965,186.296 243.476,172.162 224.404,188.531 "
   style="fill:#ffff00" />

	</g>

	<g
   id="g4902">
		<polygon
   id="polygon4870"
   points="215.535,175.165 245.595,158.835 231.121,157.353 "
   style="fill:#758291" />

		<polygon
   id="polygon4872"
   points="269.731,144.363 245.595,158.835 262.678,164.773 "
   style="fill:#758291" />

		<polygon
   id="polygon4874"
   points="184.16,237.158 163.786,238.829 196.841,253.846 "
   style="fill:#758291" />

		<polygon
   id="polygon4876"
   points="140.427,281.211 172.796,266.527 149.559,262.568 "
   style="fill:#758291" />

		<polygon
   id="polygon4878"
   points="162.02,293.078 182.823,281.46 172.796,266.527 "
   style="fill:#758291" />

		<polygon
   id="polygon4880"
   points="162.02,293.078 132.082,313.58 162.02,316.312 "
   style="fill:#758291" />

		<polygon
   id="polygon4882"
   points="206.259,221.179 222.604,209.673 202.175,207.076 "
   style="fill:#758291" />

		<polygon
   id="polygon4884"
   points="207.505,286.882 182.807,304.695 213.844,306.906 "
   style="fill:#758291" />

		<polygon
   id="polygon4886"
   points="231.759,301.359 213.844,306.906 232.694,322.467 "
   style="fill:#758291" />

		<polygon
   id="polygon4888"
   points="238.915,247.896 262.308,227.487 240.398,222.292 "
   style="fill:#758291" />

		<polygon
   id="polygon4890"
   points="238.915,247.896 224.404,258.227 234.091,276.098 "
   style="fill:#758291" />

		<polygon
   id="polygon4892"
   points="258.597,258.286 234.091,276.098 258.221,281.46 "
   style="fill:#758291" />

		<polygon
   id="polygon4894"
   points="286.8,223.379 294.59,216.353 275.651,196.685 "
   style="fill:#758291" />

		<polygon
   id="polygon4896"
   points="262.293,227.487 286.8,223.381 261.923,201.883 "
   style="fill:#758291" />

		<polygon
   id="polygon4898"
   points="289.383,242.333 310.549,233.053 286.8,223.379 "
   style="fill:#758291" />

		<polygon
   id="polygon4900"
   points="280.188,320.425 269.344,338.813 283.87,344.243 "
   style="fill:#758291" />

	</g>

	<g
   id="g4930">
		<polygon
   id="polygon4904"
   points="224.417,188.531 202.175,207.076 222.604,209.673 "
   style="fill:#605e5c" />

		<polygon
   id="polygon4906"
   points="265.213,125.416 250.789,138.8 269.731,144.363 "
   style="fill:#605e5c" />

		<polygon
   id="polygon4908"
   points="243.476,172.162 262.678,164.773 245.595,158.835 "
   style="fill:#605e5c" />

		<polygon
   id="polygon4910"
   points="263.05,181.474 245.965,186.296 261.937,201.883 "
   style="fill:#605e5c" />

		<polygon
   id="polygon4912"
   points="163.786,238.829 184.16,237.158 173.13,223.477 "
   style="fill:#605e5c" />

		<polygon
   id="polygon4914"
   points="162.02,316.312 182.823,304.695 162.02,293.078 "
   style="fill:#605e5c" />

		<polygon
   id="polygon4916"
   points="245.965,186.296 222.587,209.673 240.398,222.292 "
   style="fill:#605e5c" />

		<polygon
   id="polygon4918"
   points="261.937,201.883 240.398,222.292 262.308,227.487 "
   style="fill:#605e5c" />

		<polygon
   id="polygon4920"
   points="240.398,222.292 214.794,239.732 238.915,247.896 "
   style="fill:#605e5c" />

		<polygon
   id="polygon4922"
   points="244.852,295.022 258.221,281.46 234.091,276.098 "
   style="fill:#605e5c" />

		<polygon
   id="polygon4924"
   points="258.583,258.286 289.383,242.333 262.293,227.487 "
   style="fill:#605e5c" />

		<polygon
   id="polygon4926"
   points="314.63,253.462 284.559,265.708 309.437,271.649 "
   style="fill:#605e5c" />

		<polygon
   id="polygon4928"
   points="337.253,264.966 309.421,271.649 336.287,288.201 "
   style="fill:#605e5c" />

	</g>

	<g
   id="g4948">
		<polygon
   id="polygon4932"
   points="172.796,266.527 140.427,281.211 162.02,293.078 "
   style="fill:#650000" />

		<polygon
   id="polygon4934"
   points="195.156,383.664 224.523,370.646 189.814,367.646 "
   style="fill:#650000" />

		<polygon
   id="polygon4936"
   points="231.866,339.614 246.529,325.139 232.679,322.467 "
   style="fill:#bd0000" />

		<polygon
   id="polygon4938"
   points="259.018,395.468 234.462,404.498 257.114,413.771 "
   style="fill:#650000" />

		<polygon
   id="polygon4940"
   points="234.462,404.498 215.535,427.498 238.915,421.191 "
   style="fill:#650000" />

		<polygon
   id="polygon4942"
   points="309.437,271.649 286.8,293.078 312.086,301.221 "
   style="fill:#650000" />

		<polygon
   id="polygon4944"
   points="306.338,346.388 280.477,363.674 307.744,369.722 "
   style="fill:#650000" />

		<polygon
   id="polygon4946"
   points="328.672,340.47 351.242,328.153 336.287,308.335 "
   style="fill:#650000" />

	</g>

	<g
   id="g4964">
		<polygon
   id="polygon4950"
   points="162.02,316.312 135.087,331.938 160.449,345.951 "
   style="fill:#ff339a" />

		<polygon
   id="polygon4952"
   points="189.814,367.646 214.177,354.965 188.482,349.623 "
   style="fill:#ff339a" />

		<polygon
   id="polygon4954"
   points="286.8,293.078 309.437,271.649 284.559,265.708 "
   style="fill:#ff339a" />

		<polygon
   id="polygon4956"
   points="306.468,322.484 283.87,344.243 306.338,346.388 "
   style="fill:#ff339a" />

		<polygon
   id="polygon4958"
   points="314.615,253.462 325.005,249.752 310.536,233.053 "
   style="fill:#ff339a" />

		<polygon
   id="polygon4960"
   points="349.198,281.46 336.287,288.201 357.679,299.849 "
   style="fill:#ff339a" />

		<polygon
   id="polygon4962"
   points="351.242,328.153 328.672,340.47 356.328,350.475 "
   style="fill:#ff339a" />

	</g>

	<g
   id="g4990">
		<polygon
   id="polygon4966"
   points="160.449,345.951 145.431,348.621 162.02,362.775 "
   style="fill:#ff7e00" />

		<polygon
   id="polygon4968"
   points="184.81,325.595 213.844,306.906 182.807,304.695 "
   style="fill:#ff7e00" />

		<polygon
   id="polygon4970"
   points="215.512,335.942 232.694,322.467 213.844,306.906 "
   style="fill:#ffcf00" />

		<polygon
   id="polygon4972"
   points="258.954,318.033 269.392,307.742 244.852,295.022 "
   style="fill:#ff7e00" />

		<polygon
   id="polygon4974"
   points="234.462,404.498 259.018,395.468 248.565,386.678 "
   style="fill:#ff7e00" />

		<polygon
   id="polygon4976"
   points="258.202,281.46 284.559,265.708 258.583,258.286 "
   style="fill:#ff7e00" />

		<polygon
   id="polygon4978"
   points="280.188,320.425 312.086,301.221 286.8,293.078 "
   style="fill:#ff7e00" />

		<polygon
   id="polygon4980"
   points="283.87,344.243 270.086,353.282 280.477,363.674 "
   style="fill:#ff7e00" />

		<polygon
   id="polygon4982"
   points="307.744,369.722 286.8,386.01 301.644,392.62 "
   style="fill:#ff7e00" />

		<polygon
   id="polygon4984"
   points="336.287,288.201 312.072,301.221 336.287,308.335 "
   style="fill:#ff7e00" />

		<polygon
   id="polygon4986"
   points="306.322,346.388 328.672,340.47 306.453,322.484 "
   style="fill:#ff7e00" />

		<polygon
   id="polygon4988"
   points="333.342,357.836 356.328,350.475 328.672,340.47 "
   style="fill:#ff7e00" />

	</g>

	<g
   id="g5052">
		<polygon
   id="polygon4992"
   points="182.823,281.46 162.02,293.078 182.823,304.695 "
   style="fill:#ed0000" />

		<polygon
   id="polygon4994"
   points="135.087,331.938 162.02,316.312 132.082,313.58 "
   style="fill:#ed0000" />

		<polygon
   id="polygon4996"
   points="182.823,304.695 162.02,316.312 184.828,325.595 "
   style="fill:#ed0000" />

		<polygon
   id="polygon4998"
   points="145.431,348.621 160.449,345.951 135.087,331.938 "
   style="fill:#ed0000" />

		<polygon
   id="polygon5000"
   points="184.828,325.595 160.449,345.951 188.498,349.623 "
   style="fill:#ed0000" />

		<polygon
   id="polygon5002"
   points="188.498,349.623 162.02,362.775 189.832,367.646 "
   style="fill:#ed0000" />

		<polygon
   id="polygon5004"
   points="189.832,367.646 178.137,374.318 195.171,383.664 "
   style="fill:#ed0000" />

		<polygon
   id="polygon5006"
   points="219.533,284.213 207.505,286.882 231.759,301.359 "
   style="fill:#ed0000" />

		<polygon
   id="polygon5008"
   points="213.844,306.906 184.81,325.595 215.512,335.942 "
   style="fill:#ed0000" />

		<polygon
   id="polygon5010"
   points="232.694,322.467 215.512,335.942 231.882,339.614 "
   style="fill:#ed0000" />

		<polygon
   id="polygon5012"
   points="215.512,335.942 188.482,349.623 214.177,354.965 "
   style="fill:#ed0000" />

		<polygon
   id="polygon5014"
   points="231.882,339.614 214.177,354.965 240.225,351.29 "
   style="fill:#ed0000" />

		<polygon
   id="polygon5016"
   points="214.177,354.965 189.814,367.646 224.523,370.646 "
   style="fill:#ed0000" />

		<polygon
   id="polygon5018"
   points="224.523,370.646 195.156,383.664 207.505,389.334 "
   style="fill:#ed0000" />

		<polygon
   id="polygon5020"
   points="232.694,322.467 231.759,301.359 246.529,325.139 232.679,322.467 "
   style="fill:#ff7e00" />

		<polygon
   id="polygon5022"
   points="246.529,325.139 231.866,339.614 248.22,338.275 "
   style="fill:#ed0000" />

		<polygon
   id="polygon5024"
   points="238.915,421.191 257.114,413.771 234.462,404.498 "
   style="fill:#ed0000" />

		<polygon
   id="polygon5026"
   points="269.375,307.742 286.8,293.078 258.202,281.46 "
   style="fill:#ed0000" />

		<polygon
   id="polygon5028"
   points="269.344,338.813 280.188,320.425 269.375,307.742 "
   style="fill:#ed0000" />

		<polygon
   id="polygon5030"
   points="312.086,301.221 280.188,320.425 306.468,322.484 "
   style="fill:#ed0000" />

		<polygon
   id="polygon5032"
   points="280.477,363.674 306.338,346.388 283.87,344.243 "
   style="fill:#ed0000" />

		<polygon
   id="polygon5034"
   points="261.18,370.725 280.477,363.674 270.086,353.282 "
   style="fill:#ed0000" />

		<polygon
   id="polygon5036"
   points="286.8,386.01 307.744,369.722 280.477,363.674 "
   style="fill:#ed0000" />

		<polygon
   id="polygon5038"
   points="258.999,395.468 286.8,386.01 261.18,370.725 "
   style="fill:#ed0000" />

		<polygon
   id="polygon5040"
   points="257.099,413.771 280.105,404.12 258.999,395.468 "
   style="fill:#ed0000" />

		<polygon
   id="polygon5042"
   points="357.679,299.849 336.287,308.335 351.242,328.153 "
   style="fill:#ed0000" />

		<polygon
   id="polygon5044"
   points="336.287,308.335 306.453,322.484 328.672,340.47 "
   style="fill:#ed0000" />

		<polygon
   id="polygon5046"
   points="328.672,340.47 306.322,346.388 333.342,357.836 "
   style="fill:#ed0000" />

		<polygon
   id="polygon5048"
   points="356.328,350.475 333.342,357.836 343.947,363.674 "
   style="fill:#ed0000" />

		<polygon
   id="polygon5050"
   points="301.629,392.62 327.606,375.923 307.729,369.722 "
   style="fill:#ed0000" />

	</g>

	<g
   id="g5084">
		<polygon
   id="polygon5054"
   points="215.55,175.165 202.175,192.975 224.417,188.531 "
   style="fill:#aeb0b2" />

		<polygon
   id="polygon5056"
   points="250.789,138.8 231.121,157.353 245.595,158.835 "
   style="fill:#aeb0b2" />

		<polygon
   id="polygon5058"
   points="245.595,158.835 215.535,175.165 243.476,172.162 "
   style="fill:#aeb0b2" />

		<polygon
   id="polygon5060"
   points="262.678,164.773 243.476,172.162 263.05,181.474 "
   style="fill:#aeb0b2" />

		<polygon
   id="polygon5062"
   points="261.923,201.881 275.651,196.685 263.034,181.474 "
   style="fill:#aeb0b2" />

		<polygon
   id="polygon5064"
   points="172.796,266.527 196.841,253.846 163.786,238.829 "
   style="fill:#aeb0b2" />

		<polygon
   id="polygon5066"
   points="132.082,313.58 162.02,293.078 140.427,281.211 "
   style="fill:#aeb0b2" />

		<polygon
   id="polygon5068"
   points="160.449,345.951 184.828,325.595 162.02,316.312 "
   style="fill:#aeb0b2" />

		<polygon
   id="polygon5070"
   points="222.604,209.673 206.259,221.179 214.809,239.732 "
   style="fill:#aeb0b2" />

		<polygon
   id="polygon5072"
   points="182.807,304.695 207.505,286.882 182.807,281.46 "
   style="fill:#aeb0b2" />

		<polygon
   id="polygon5074"
   points="262.308,227.487 238.915,247.896 258.597,258.286 "
   style="fill:#aeb0b2" />

		<polygon
   id="polygon5076"
   points="258.221,281.46 244.852,295.022 269.392,307.742 "
   style="fill:#aeb0b2" />

		<polygon
   id="polygon5078"
   points="310.549,233.053 289.383,242.333 314.63,253.462 "
   style="fill:#aeb0b2" />

		<polygon
   id="polygon5080"
   points="325.005,249.752 314.615,253.462 337.253,264.966 "
   style="fill:#aeb0b2" />

		<polygon
   id="polygon5082"
   points="351.227,328.153 363.229,317.289 357.663,299.849 "
   style="fill:#aeb0b2" />

	</g>

	<g
   id="g5106">
		<polygon
   id="polygon5086"
   points="178.137,374.318 189.832,367.646 162.02,362.775 "
   style="fill:#bd0000" />

		<polygon
   id="polygon5088"
   points="213.844,306.906 231.759,301.359 207.505,286.882 "
   style="fill:#bd0000" />

		<polygon
   id="polygon5090"
   points="188.482,349.623 215.512,335.942 184.81,325.595 "
   style="fill:#650000" />

		<polygon
   id="polygon5092"
   points="214.177,354.965 231.882,339.614 215.512,335.942 " />

		<polygon
   id="polygon5094"
   points="269.392,307.742 258.954,318.033 269.359,338.813 "
   style="fill:#bd0000" />

		<polygon
   id="polygon5096"
   points="284.559,265.708 314.63,253.462 289.383,242.333 "
   style="fill:#bd0000" />

		<polygon
   id="polygon5098"
   points="283.87,344.243 306.468,322.484 280.188,320.425 "
   style="fill:#bd0000" />

		<polygon
   id="polygon5100"
   points="286.8,386.01 258.999,395.468 280.105,404.12 "
   style="fill:#bd0000" />

		<polygon
   id="polygon5102"
   points="307.729,369.722 333.342,357.836 306.322,346.388 "
   style="fill:#bd0000" />

		<polygon
   id="polygon5104"
   points="363.229,317.289 351.227,328.153 363.295,334.731 "
   style="fill:#bd0000" />

	</g>

	<g
   id="g5122">
		<polygon
   id="polygon5108"
   points="162.02,362.775 188.498,349.623 160.449,345.951 "
   style="fill:#ffcf00" />

		<polygon
   id="polygon5110"
   points="207.505,268.196 182.807,281.46 207.505,286.882 "
   style="fill:#ffcf00" />

		<polygon
   id="polygon5112"
   points="224.523,370.646 240.225,351.29 214.177,354.965 "
   style="fill:#bd0000" />

		<polygon
   id="polygon5114"
   points="261.196,370.725 248.565,386.678 259.018,395.468 "
   style="fill:#ffcf00" />

		<polygon
   id="polygon5116"
   points="306.453,322.484 336.287,308.335 312.072,301.221 "
   style="fill:#ffcf00" />

		<polygon
   id="polygon5118"
   points="333.342,357.836 307.729,369.722 327.606,375.923 "
   style="fill:#ffcf00" />

		<polygon
   id="polygon5120"
   points="356.315,350.475 363.295,334.731 351.227,328.153 "
   style="fill:#ffcf00" />

	</g>

	<g
   id="g5164">
		<polygon
   id="polygon5124"
   points="202.175,207.076 224.417,188.531 202.175,192.975 "
   style="fill:#464749" />

		<polygon
   id="polygon5126"
   points="245.595,158.835 269.731,144.363 250.789,138.8 "
   style="fill:#464749" />

		<polygon
   id="polygon5128"
   points="224.404,188.531 243.476,172.162 215.535,175.165 "
   style="fill:#464749" />

		<polygon
   id="polygon5130"
   points="163.786,238.829 149.559,262.568 172.796,266.527 "
   style="fill:#464749" />

		<polygon
   id="polygon5132"
   points="196.841,253.846 172.796,266.527 182.823,281.46 "
   style="fill:#464749" />

		<polygon
   id="polygon5134"
   points="207.505,286.882 219.533,284.213 207.505,268.196 "
   style="fill:#464749" />

		<polygon
   id="polygon5136"
   points="240.398,222.292 261.937,201.883 245.965,186.296 "
   style="fill:#464749" />

		<polygon
   id="polygon5138"
   points="214.794,239.732 240.398,222.292 222.587,209.673 "
   style="fill:#464749" />

		<polygon
   id="polygon5140"
   points="224.404,258.227 238.915,247.896 214.794,239.732 "
   style="fill:#464749" />

		<polygon
   id="polygon5142"
   points="234.091,276.098 258.597,258.286 238.915,247.896 "
   style="fill:#464749" />

		<polygon
   id="polygon5144"
   points="240.211,351.29 248.22,338.275 231.866,339.614 "
   style="fill:#464749" />

		<polygon
   id="polygon5146"
   points="294.59,216.353 286.8,223.381 310.549,233.053 "
   style="fill:#464749" />

		<polygon
   id="polygon5148"
   points="286.8,223.379 262.293,227.487 289.383,242.333 "
   style="fill:#464749" />

		<polygon
   id="polygon5150"
   points="284.559,265.708 258.202,281.46 286.8,293.078 "
   style="fill:#464749" />

		<polygon
   id="polygon5152"
   points="280.477,363.674 261.18,370.725 286.8,386.01 "
   style="fill:#464749" />

		<polygon
   id="polygon5154"
   points="309.421,271.649 337.253,264.966 314.615,253.462 "
   style="fill:#464749" />

		<polygon
   id="polygon5156"
   points="312.072,301.221 336.287,288.201 309.421,271.649 "
   style="fill:#464749" />

		<polygon
   id="polygon5158"
   points="336.287,308.335 357.679,299.849 336.287,288.201 "
   style="fill:#464749" />

		<polygon
   id="polygon5160"
   points="327.606,375.923 343.947,363.674 333.342,357.836 "
   style="fill:#464749" />

		<polygon
   id="polygon5162"
   points="269.714,144.363 277.136,128.78 265.198,125.416 "
   style="fill:#464749" />

	</g>

	<g
   id="g5186">
		<polygon
   id="polygon5166"
   points="245.965,186.296 263.05,181.474 243.476,172.162 " />

		<polygon
   id="polygon5168"
   points="286.041,107.627 265.198,125.416 277.136,128.78 " />

		<polygon
   id="polygon5170"
   points="182.807,281.46 207.505,268.196 196.828,253.846 " />

		<polygon
   id="polygon5172"
   points="275.651,196.685 261.923,201.883 286.8,223.381 " />

		<polygon
   id="polygon5174"
   points="289.383,242.333 258.583,258.286 284.559,265.708 " />

		<polygon
   id="polygon5176"
   points="286.8,293.078 269.375,307.742 280.188,320.425 " />

		<polygon
   id="polygon5178"
   points="270.086,353.282 283.87,344.243 269.344,338.813 " />

		<polygon
   id="polygon5180"
   points="280.105,404.12 301.644,392.62 286.8,386.01 " />

		<polygon
   id="polygon5182"
   points="336.287,288.201 349.198,281.46 337.253,264.966 " />

		<polygon
   id="polygon5184"
   points="222.587,209.673 245.965,186.296 224.404,188.531 " />

	</g>

	<g
   id="g5190">
		<polygon
   id="polygon5188"
   points="245.965,186.296 243.476,172.162 224.404,188.531 "
   style="fill:#ffff00" />

	</g>

</g>
          <g
             id="g5220">
	
	
	
	
	
	
	
	
	
	
	
	
	
</g>
        </g>
        <g
           transform="matrix(0.18573722,0,0,0.18573722,-72.965097,-49.214779)"
           id="g5745">
          <g
             id="g5762"
             transform="matrix(0.20331151,0,0,0.20331151,314.85129,211.64429)">
            <path
               id="path5196"
               d="M 434.474,278.594 H 415.93 c -7.608,0 -12.669,1.521 -15.938,4.79 -3.268,3.269 -4.792,8.332 -4.792,15.936 v 24.73 c 0,1.2 0.979,2.177 2.183,2.177 1.204,0 2.179,-0.977 2.179,-2.177 v -21.627 h 22.55 c 1.203,0 2.18,-0.97 2.18,-2.179 0,-1.2 -0.977,-2.179 -2.18,-2.179 h -22.531 c 0.141,-5.658 1.261,-9.365 3.495,-11.598 2.4,-2.4 6.482,-3.512 12.855,-3.512 h 18.544 c 1.206,0 2.18,-0.979 2.18,-2.181 -0.002,-1.206 -0.975,-2.18 -2.181,-2.18 z"
               inkscape:connector-curvature="0" />
            <path
               id="path5198"
               d="m 476.821,321.864 h -18.854 c -6.373,0 -10.456,-1.116 -12.855,-3.514 -2.393,-2.396 -3.514,-6.48 -3.514,-12.851 v -3.077 h 22.546 c 1.21,0 2.186,-0.97 2.186,-2.179 0,-1.2 -0.976,-2.179 -2.186,-2.179 h -22.527 c 0.139,-5.658 1.261,-9.365 3.495,-11.598 2.399,-2.4 6.482,-3.512 12.855,-3.512 h 18.545 c 1.205,0 2.179,-0.979 2.179,-2.181 0,-1.207 -0.974,-2.181 -2.179,-2.181 h -18.545 c -7.605,0 -12.669,1.521 -15.939,4.79 -3.267,3.269 -4.788,8.332 -4.788,15.936 v 6.181 c 0,7.601 1.521,12.668 4.788,15.935 3.271,3.271 8.334,4.792 15.939,4.792 h 18.854 c 1.202,0 2.179,-0.977 2.179,-2.177 0,-1.208 -0.977,-2.185 -2.179,-2.185 z"
               inkscape:connector-curvature="0" />
            <path
               id="path5202"
               d="m 504.021,277.971 c -7.605,0 -12.667,1.524 -15.938,4.794 -3.269,3.268 -4.789,8.327 -4.789,15.936 v 25.349 c 0,1.2 0.976,2.177 2.182,2.177 1.202,0 2.185,-0.977 2.185,-2.177 v -25.349 c 0,-6.37 1.112,-10.456 3.509,-12.851 2.397,-2.4 6.479,-3.513 12.853,-3.513 6.374,0 10.458,1.113 12.854,3.513 2.398,2.395 3.512,6.48 3.512,12.851 v 25.654 c 0,1.204 0.976,2.177 2.181,2.177 1.206,0 2.181,-0.973 2.181,-2.177 v -25.654 c 0,-7.609 -1.523,-12.668 -4.791,-15.936 -3.271,-3.27 -8.334,-4.794 -15.939,-4.794 z"
               inkscape:connector-curvature="0" />
            <path
               id="path5204"
               d="m 534.312,278.594 c -1.204,0 -2.179,0.975 -2.179,2.181 v 43.275 c 0,1.2 0.975,2.177 2.179,2.177 1.203,0 2.178,-0.977 2.178,-2.177 v -43.275 c -10e-4,-1.207 -0.975,-2.181 -2.178,-2.181 z"
               inkscape:connector-curvature="0" />
            <path
               id="path5206"
               d="m 551.149,286.468 c 2.396,-2.4 6.481,-3.512 12.851,-3.512 6.374,0 10.455,1.111 12.853,3.512 2.395,2.392 3.512,6.478 3.512,12.852 0,1.202 0.979,2.179 2.184,2.179 1.2,0 2.182,-0.977 2.182,-2.179 0,-7.604 -1.522,-12.667 -4.791,-15.936 -3.272,-3.268 -8.332,-4.79 -15.938,-4.79 -7.605,0 -12.668,1.521 -15.936,4.79 -3.269,3.269 -4.794,8.332 -4.794,15.936 v 6.181 c 0,7.601 1.525,12.668 4.794,15.935 3.268,3.271 8.33,4.792 15.936,4.792 h 18.548 c 1.2,0 2.182,-0.977 2.182,-2.177 0,-1.209 -0.981,-2.186 -2.182,-2.186 H 564 c -6.369,0 -10.454,-1.116 -12.851,-3.514 -2.398,-2.396 -3.514,-6.48 -3.514,-12.851 v -6.181 c 10e-4,-6.374 1.116,-10.46 3.514,-12.851 z"
               inkscape:connector-curvature="0" />
            <path
               id="path5216"
               d="m 610.991,282.956 h 18.852 c 1.208,0 2.185,-0.979 2.185,-2.181 0,-1.207 -0.979,-2.181 -2.185,-2.181 h -18.852 c -5.508,0 -9.511,0.753 -12.597,2.381 -3.313,1.745 -5.535,4.49 -6.785,8.398 -0.064,0.193 -1.51,4.788 1.542,8.98 3.003,4.141 9.11,6.239 18.147,6.239 0.004,0 0.006,0 0.01,0 0,0 0.002,0 0.005,0 7.414,0 12.456,1.513 14.586,4.385 1.744,2.354 1.001,4.979 0.954,5.139 -1.495,4.65 -4.661,7.748 -15.229,7.748 h -18.871 c -1.203,0 -2.18,0.977 -2.18,2.186 0,1.2 0.977,2.177 2.18,2.177 h 18.871 c 5.505,0 9.508,-0.756 12.594,-2.381 3.314,-1.743 5.535,-4.495 6.786,-8.401 0.065,-0.195 1.509,-4.785 -1.542,-8.984 -3.006,-4.137 -9.11,-6.235 -18.148,-6.235 -0.003,0 -0.005,0.002 -0.005,0.002 -0.004,0 -0.006,-0.002 -0.01,-0.002 -7.409,0 -12.456,-1.515 -14.584,-4.384 -1.746,-2.353 -1.005,-4.98 -0.954,-5.14 1.495,-4.651 4.659,-7.746 15.23,-7.746 z"
               inkscape:connector-curvature="0" />
            <circle
               id="circle5222"
               r="2.7079999"
               cy="268.36301"
               cx="534.29199" />
          </g>
        </g>
      </g>
    </g>
  </g>
  <g
     inkscape:groupmode="layer"
     id="layer2"
     inkscape:label="Layer 2"
     transform="translate(0,178)" />
</svg>
